<?xml version="1.0" standalone="no"?>
<!DOCTYPE svg PUBLIC "-//W3C//DTD SVG 20010904//EN"
 "http://www.w3.org/TR/2001/REC-SVG-20010904/DTD/svg10.dtd">
<svg version="1.0" xmlns="http://www.w3.org/2000/svg"
 width="300.000000pt" height="286.000000pt" viewBox="0 0 300.000000 286.000000"
 preserveAspectRatio="xMidYMid meet">
<metadata>
Created by potrace 1.10, written by Peter Selinger 2001-2011
</metadata>
<g transform="translate(0.000000,286.000000) scale(0.100000,-0.100000)"
fill="#000000" stroke="none">
<path d="M587 2629 c-103 -24 -205 -103 -255 -197 -56 -104 -56 -121 -28 -534
15 -205 31 -445 37 -533 6 -88 13 -163 16 -167 8 -14 51 -9 56 6 3 8 -8 205
-25 438 -16 232 -31 484 -31 558 -2 123 0 139 22 182 33 68 93 125 165 159
l63 29 844 -2 844 -3 50 -25 c71 -34 139 -108 165 -177 28 -72 28 -68 -35
-998 -28 -424 -51 -709 -60 -740 -28 -101 -103 -181 -205 -219 -41 -15 -111
-16 -785 -14 l-740 3 -50 27 c-28 14 -70 47 -94 73 -72 78 -81 110 -97 344 -8
113 -17 212 -19 219 -6 16 -40 16 -53 -1 -17 -20 14 -405 38 -475 38 -106 101
-174 210 -226 l65 -31 755 0 755 0 67 32 c87 41 151 101 189 178 34 70 43 125
58 355 6 85 19 286 30 445 67 976 64 934 51 994 -33 149 -137 257 -285 295
-51 14 -167 16 -870 15 -445 -1 -827 -5 -848 -10z"/>
<path d="M551 2395 c-40 -35 -56 -84 -41 -130 42 -126 230 -97 230 35 0 99
-115 157 -189 95z m119 -76 c15 -28 -11 -69 -45 -69 -45 0 -70 47 -42 82 26
33 66 27 87 -13z"/>
<path d="M2199 2403 c-66 -40 -76 -128 -23 -184 53 -55 143 -44 184 23 63 100
-60 224 -161 161z m101 -68 c21 -25 8 -69 -23 -79 -37 -13 -61 2 -65 42 -5 51
56 76 88 37z"/>
<path d="M1299 2376 c-134 -38 -287 -162 -343 -277 -49 -102 -75 -256 -45
-275 8 -4 661 -9 735 -5 18 1 26 32 13 47 -8 10 -38 14 -103 14 l-91 0 -40 73
c-51 92 -51 91 -19 106 15 6 25 14 23 16 -11 11 -162 106 -164 103 -6 -6 -11
-198 -5 -198 3 0 15 7 26 15 10 8 22 15 26 15 5 0 63 -93 76 -122 2 -5 -94 -8
-213 -8 l-216 0 7 38 c12 64 43 143 75 194 l32 49 34 -33 c27 -26 37 -30 51
-22 29 18 26 48 -8 72 -17 13 -28 27 -25 32 11 18 146 93 153 86 4 -4 12 -24
17 -44 8 -27 17 -38 33 -40 29 -4 38 21 25 69 l-10 37 54 7 c30 4 72 4 94 0
33 -6 39 -10 33 -23 -15 -37 -15 -68 0 -81 24 -20 44 -6 56 38 6 23 16 41 22
41 14 0 148 -78 148 -86 0 -3 -14 -19 -31 -35 -25 -24 -28 -31 -19 -49 15 -29
44 -25 74 11 l26 30 39 -61 c40 -62 64 -123 77 -192 l6 -38 -65 0 c-50 0 -66
-4 -71 -16 -8 -21 -8 -21 8 -37 19 -19 174 -16 187 4 11 17 3 94 -17 169 -44
160 -178 303 -339 362 -74 27 -254 35 -326 14z m51 -316 c0 -21 -8 -24 -34
-14 -16 6 -22 35 -10 47 12 11 44 -13 44 -33z"/>
<path d="M684 786 c-17 -8 -41 -27 -53 -42 -34 -43 -25 -117 18 -156 92 -83
239 24 186 135 -28 61 -94 88 -151 63z m78 -73 c43 -39 -4 -109 -57 -85 -47
22 -28 102 24 102 8 0 23 -7 33 -17z"/>
<path d="M2104 781 c-75 -34 -90 -127 -30 -187 29 -29 41 -34 79 -34 86 0 143
79 112 157 -26 66 -95 93 -161 64z m92 -76 c19 -30 11 -62 -21 -77 -49 -22
-96 42 -60 82 25 27 61 25 81 -5z"/>
</g>
</svg>
